<mxfile host="app.diagrams.net" agent="Mozilla/5.0 (Windows NT 10.0; Win64; x64) AppleWebKit/537.36 (KHTML, like Gecko) Chrome/130.0.0.0 Safari/537.36" version="24.8.4">
  <diagram name="Σελίδα-1" id="_uDVrpSeUkR1qjzQ6ei-">
    <mxGraphModel dx="3790" dy="1054" grid="1" gridSize="10" guides="1" tooltips="1" connect="1" arrows="1" fold="1" page="1" pageScale="1" pageWidth="827" pageHeight="1169" math="0" shadow="0">
      <root>
        <mxCell id="0" />
        <mxCell id="1" parent="0" />
        <mxCell id="am3RVxZ9VUqmCvYDFiqI-1" style="edgeStyle=none;rounded=0;orthogonalLoop=1;jettySize=auto;html=1;exitX=1;exitY=1;exitDx=0;exitDy=0;curved=1;" edge="1" parent="1" source="am3RVxZ9VUqmCvYDFiqI-2" target="am3RVxZ9VUqmCvYDFiqI-6">
          <mxGeometry relative="1" as="geometry">
            <Array as="points">
              <mxPoint x="-590" y="460" />
            </Array>
          </mxGeometry>
        </mxCell>
        <mxCell id="am3RVxZ9VUqmCvYDFiqI-2" value="DIS" style="ellipse;whiteSpace=wrap;html=1;aspect=fixed;" vertex="1" parent="1">
          <mxGeometry x="-750" y="360" width="80" height="80" as="geometry" />
        </mxCell>
        <mxCell id="am3RVxZ9VUqmCvYDFiqI-3" style="edgeStyle=none;rounded=0;orthogonalLoop=1;jettySize=auto;html=1;exitX=1;exitY=0.5;exitDx=0;exitDy=0;entryX=0;entryY=0.5;entryDx=0;entryDy=0;curved=1;" edge="1" parent="1" source="am3RVxZ9VUqmCvYDFiqI-6" target="am3RVxZ9VUqmCvYDFiqI-9">
          <mxGeometry relative="1" as="geometry">
            <Array as="points">
              <mxPoint x="-470" y="570" />
            </Array>
          </mxGeometry>
        </mxCell>
        <mxCell id="am3RVxZ9VUqmCvYDFiqI-4" style="edgeStyle=none;rounded=0;orthogonalLoop=1;jettySize=auto;html=1;exitX=0;exitY=0.5;exitDx=0;exitDy=0;entryX=0.5;entryY=1;entryDx=0;entryDy=0;strokeColor=none;curved=1;" edge="1" parent="1" source="am3RVxZ9VUqmCvYDFiqI-6" target="am3RVxZ9VUqmCvYDFiqI-2">
          <mxGeometry relative="1" as="geometry">
            <Array as="points">
              <mxPoint x="-690" y="530" />
            </Array>
          </mxGeometry>
        </mxCell>
        <mxCell id="am3RVxZ9VUqmCvYDFiqI-6" value="IDLE" style="ellipse;whiteSpace=wrap;html=1;aspect=fixed;" vertex="1" parent="1">
          <mxGeometry x="-610" y="550" width="80" height="80" as="geometry" />
        </mxCell>
        <mxCell id="am3RVxZ9VUqmCvYDFiqI-7" style="edgeStyle=none;rounded=0;orthogonalLoop=1;jettySize=auto;html=1;exitX=0.5;exitY=0;exitDx=0;exitDy=0;entryX=0;entryY=1;entryDx=0;entryDy=0;curved=1;" edge="1" parent="1" source="am3RVxZ9VUqmCvYDFiqI-9" target="am3RVxZ9VUqmCvYDFiqI-12">
          <mxGeometry relative="1" as="geometry">
            <Array as="points">
              <mxPoint x="-330" y="490" />
            </Array>
          </mxGeometry>
        </mxCell>
        <mxCell id="am3RVxZ9VUqmCvYDFiqI-9" value="START" style="ellipse;whiteSpace=wrap;html=1;aspect=fixed;" vertex="1" parent="1">
          <mxGeometry x="-390" y="540" width="80" height="80" as="geometry" />
        </mxCell>
        <mxCell id="am3RVxZ9VUqmCvYDFiqI-10" style="edgeStyle=none;rounded=0;orthogonalLoop=1;jettySize=auto;html=1;exitX=1;exitY=0;exitDx=0;exitDy=0;entryX=0;entryY=0.5;entryDx=0;entryDy=0;curved=1;" edge="1" parent="1" source="am3RVxZ9VUqmCvYDFiqI-12" target="am3RVxZ9VUqmCvYDFiqI-15">
          <mxGeometry relative="1" as="geometry">
            <Array as="points">
              <mxPoint x="-190" y="360" />
            </Array>
          </mxGeometry>
        </mxCell>
        <mxCell id="am3RVxZ9VUqmCvYDFiqI-12" value="1" style="ellipse;whiteSpace=wrap;html=1;aspect=fixed;" vertex="1" parent="1">
          <mxGeometry x="-290" y="390" width="80" height="80" as="geometry" />
        </mxCell>
        <mxCell id="am3RVxZ9VUqmCvYDFiqI-13" style="edgeStyle=none;rounded=0;orthogonalLoop=1;jettySize=auto;html=1;exitX=1;exitY=0;exitDx=0;exitDy=0;entryX=0;entryY=0;entryDx=0;entryDy=0;curved=1;" edge="1" parent="1" source="am3RVxZ9VUqmCvYDFiqI-15" target="am3RVxZ9VUqmCvYDFiqI-17">
          <mxGeometry relative="1" as="geometry">
            <Array as="points">
              <mxPoint y="300" />
            </Array>
          </mxGeometry>
        </mxCell>
        <mxCell id="am3RVxZ9VUqmCvYDFiqI-15" value="2" style="ellipse;whiteSpace=wrap;html=1;aspect=fixed;" vertex="1" parent="1">
          <mxGeometry x="-130" y="300" width="80" height="80" as="geometry" />
        </mxCell>
        <mxCell id="am3RVxZ9VUqmCvYDFiqI-16" style="edgeStyle=none;rounded=0;orthogonalLoop=1;jettySize=auto;html=1;exitX=1;exitY=0.5;exitDx=0;exitDy=0;entryX=0;entryY=0;entryDx=0;entryDy=0;curved=1;" edge="1" parent="1" source="am3RVxZ9VUqmCvYDFiqI-17" target="am3RVxZ9VUqmCvYDFiqI-20">
          <mxGeometry relative="1" as="geometry">
            <Array as="points">
              <mxPoint x="210" y="360" />
            </Array>
          </mxGeometry>
        </mxCell>
        <mxCell id="am3RVxZ9VUqmCvYDFiqI-17" value="3" style="ellipse;whiteSpace=wrap;html=1;aspect=fixed;" vertex="1" parent="1">
          <mxGeometry x="70" y="300" width="80" height="80" as="geometry" />
        </mxCell>
        <mxCell id="am3RVxZ9VUqmCvYDFiqI-18" style="edgeStyle=none;rounded=0;orthogonalLoop=1;jettySize=auto;html=1;exitX=1;exitY=1;exitDx=0;exitDy=0;entryX=0.5;entryY=0;entryDx=0;entryDy=0;curved=1;" edge="1" parent="1" source="am3RVxZ9VUqmCvYDFiqI-20" target="am3RVxZ9VUqmCvYDFiqI-22">
          <mxGeometry relative="1" as="geometry">
            <Array as="points">
              <mxPoint x="340" y="530" />
            </Array>
          </mxGeometry>
        </mxCell>
        <mxCell id="am3RVxZ9VUqmCvYDFiqI-20" value="4" style="ellipse;whiteSpace=wrap;html=1;aspect=fixed;" vertex="1" parent="1">
          <mxGeometry x="220" y="420" width="80" height="80" as="geometry" />
        </mxCell>
        <mxCell id="am3RVxZ9VUqmCvYDFiqI-22" value="5" style="ellipse;whiteSpace=wrap;html=1;aspect=fixed;" vertex="1" parent="1">
          <mxGeometry x="290" y="580" width="80" height="80" as="geometry" />
        </mxCell>
        <mxCell id="am3RVxZ9VUqmCvYDFiqI-23" style="edgeStyle=none;rounded=0;orthogonalLoop=1;jettySize=auto;html=1;exitX=0;exitY=1;exitDx=0;exitDy=0;entryX=1;entryY=0;entryDx=0;entryDy=0;curved=1;" edge="1" parent="1" source="am3RVxZ9VUqmCvYDFiqI-24" target="am3RVxZ9VUqmCvYDFiqI-25">
          <mxGeometry relative="1" as="geometry">
            <Array as="points">
              <mxPoint x="280" y="870" />
            </Array>
          </mxGeometry>
        </mxCell>
        <mxCell id="am3RVxZ9VUqmCvYDFiqI-24" value="6" style="ellipse;whiteSpace=wrap;html=1;aspect=fixed;" vertex="1" parent="1">
          <mxGeometry x="280" y="730" width="80" height="80" as="geometry" />
        </mxCell>
        <mxCell id="am3RVxZ9VUqmCvYDFiqI-25" value="7" style="ellipse;whiteSpace=wrap;html=1;aspect=fixed;" vertex="1" parent="1">
          <mxGeometry x="140" y="870" width="80" height="80" as="geometry" />
        </mxCell>
        <mxCell id="am3RVxZ9VUqmCvYDFiqI-26" style="edgeStyle=none;rounded=0;orthogonalLoop=1;jettySize=auto;html=1;exitX=0;exitY=0.5;exitDx=0;exitDy=0;entryX=1;entryY=1;entryDx=0;entryDy=0;curved=1;" edge="1" parent="1" source="am3RVxZ9VUqmCvYDFiqI-28" target="am3RVxZ9VUqmCvYDFiqI-31">
          <mxGeometry relative="1" as="geometry">
            <Array as="points">
              <mxPoint x="-90" y="980" />
            </Array>
          </mxGeometry>
        </mxCell>
        <mxCell id="am3RVxZ9VUqmCvYDFiqI-28" value="8" style="ellipse;whiteSpace=wrap;html=1;aspect=fixed;" vertex="1" parent="1">
          <mxGeometry x="-40" y="940" width="80" height="80" as="geometry" />
        </mxCell>
        <mxCell id="am3RVxZ9VUqmCvYDFiqI-29" style="edgeStyle=none;rounded=0;orthogonalLoop=1;jettySize=auto;html=1;exitX=0;exitY=0;exitDx=0;exitDy=0;entryX=1;entryY=1;entryDx=0;entryDy=0;curved=1;" edge="1" parent="1" source="am3RVxZ9VUqmCvYDFiqI-31" target="am3RVxZ9VUqmCvYDFiqI-34">
          <mxGeometry relative="1" as="geometry">
            <Array as="points">
              <mxPoint x="-270" y="860" />
            </Array>
          </mxGeometry>
        </mxCell>
        <mxCell id="am3RVxZ9VUqmCvYDFiqI-31" value="PARITY" style="ellipse;whiteSpace=wrap;html=1;aspect=fixed;" vertex="1" parent="1">
          <mxGeometry x="-220" y="880" width="80" height="80" as="geometry" />
        </mxCell>
        <mxCell id="am3RVxZ9VUqmCvYDFiqI-32" style="edgeStyle=none;rounded=0;orthogonalLoop=1;jettySize=auto;html=1;exitX=0;exitY=0.5;exitDx=0;exitDy=0;entryX=0;entryY=1;entryDx=0;entryDy=0;curved=1;" edge="1" parent="1" source="am3RVxZ9VUqmCvYDFiqI-34" target="am3RVxZ9VUqmCvYDFiqI-2">
          <mxGeometry relative="1" as="geometry">
            <Array as="points">
              <mxPoint x="-440" y="780" />
              <mxPoint x="-570" y="760" />
              <mxPoint x="-720" y="630" />
            </Array>
          </mxGeometry>
        </mxCell>
        <mxCell id="am3RVxZ9VUqmCvYDFiqI-34" value="END" style="ellipse;whiteSpace=wrap;html=1;aspect=fixed;" vertex="1" parent="1">
          <mxGeometry x="-370" y="730" width="80" height="80" as="geometry" />
        </mxCell>
        <mxCell id="am3RVxZ9VUqmCvYDFiqI-35" style="edgeStyle=none;rounded=0;orthogonalLoop=1;jettySize=auto;html=1;exitX=0.5;exitY=0;exitDx=0;exitDy=0;entryX=1;entryY=0;entryDx=0;entryDy=0;curved=1;" edge="1" parent="1" source="am3RVxZ9VUqmCvYDFiqI-2" target="am3RVxZ9VUqmCvYDFiqI-2">
          <mxGeometry relative="1" as="geometry">
            <Array as="points">
              <mxPoint x="-710" y="330" />
              <mxPoint x="-670" y="320" />
              <mxPoint x="-660" y="350" />
            </Array>
          </mxGeometry>
        </mxCell>
        <mxCell id="am3RVxZ9VUqmCvYDFiqI-36" style="edgeStyle=none;rounded=0;orthogonalLoop=1;jettySize=auto;html=1;exitX=0.5;exitY=1;exitDx=0;exitDy=0;entryX=0.618;entryY=0.069;entryDx=0;entryDy=0;entryPerimeter=0;curved=1;" edge="1" parent="1" source="am3RVxZ9VUqmCvYDFiqI-22" target="am3RVxZ9VUqmCvYDFiqI-24">
          <mxGeometry relative="1" as="geometry">
            <Array as="points">
              <mxPoint x="350" y="700" />
            </Array>
          </mxGeometry>
        </mxCell>
        <mxCell id="am3RVxZ9VUqmCvYDFiqI-37" style="edgeStyle=none;rounded=0;orthogonalLoop=1;jettySize=auto;html=1;exitX=0;exitY=1;exitDx=0;exitDy=0;entryX=1.015;entryY=0.415;entryDx=0;entryDy=0;entryPerimeter=0;curved=1;" edge="1" parent="1" source="am3RVxZ9VUqmCvYDFiqI-25" target="am3RVxZ9VUqmCvYDFiqI-28">
          <mxGeometry relative="1" as="geometry">
            <Array as="points">
              <mxPoint x="120" y="980" />
            </Array>
          </mxGeometry>
        </mxCell>
        <mxCell id="am3RVxZ9VUqmCvYDFiqI-40" style="edgeStyle=none;rounded=0;orthogonalLoop=1;jettySize=auto;html=1;exitX=1;exitY=0;exitDx=0;exitDy=0;entryX=1;entryY=0.5;entryDx=0;entryDy=0;curved=1;" edge="1" parent="1" source="am3RVxZ9VUqmCvYDFiqI-9" target="am3RVxZ9VUqmCvYDFiqI-9">
          <mxGeometry relative="1" as="geometry">
            <Array as="points">
              <mxPoint x="-260" y="550" />
            </Array>
          </mxGeometry>
        </mxCell>
        <mxCell id="am3RVxZ9VUqmCvYDFiqI-41" style="edgeStyle=none;rounded=0;orthogonalLoop=1;jettySize=auto;html=1;exitX=1;exitY=0.5;exitDx=0;exitDy=0;entryX=1;entryY=1;entryDx=0;entryDy=0;curved=1;" edge="1" parent="1" source="am3RVxZ9VUqmCvYDFiqI-12" target="am3RVxZ9VUqmCvYDFiqI-12">
          <mxGeometry relative="1" as="geometry">
            <Array as="points">
              <mxPoint x="-150" y="470" />
            </Array>
          </mxGeometry>
        </mxCell>
        <mxCell id="am3RVxZ9VUqmCvYDFiqI-42" style="edgeStyle=none;rounded=0;orthogonalLoop=1;jettySize=auto;html=1;exitX=1;exitY=0.5;exitDx=0;exitDy=0;entryX=1;entryY=1;entryDx=0;entryDy=0;curved=1;" edge="1" parent="1" source="am3RVxZ9VUqmCvYDFiqI-15" target="am3RVxZ9VUqmCvYDFiqI-15">
          <mxGeometry relative="1" as="geometry">
            <Array as="points">
              <mxPoint y="400" />
            </Array>
          </mxGeometry>
        </mxCell>
        <mxCell id="am3RVxZ9VUqmCvYDFiqI-43" style="edgeStyle=none;rounded=0;orthogonalLoop=1;jettySize=auto;html=1;exitX=1;exitY=1;exitDx=0;exitDy=0;entryX=0.5;entryY=1;entryDx=0;entryDy=0;curved=1;" edge="1" parent="1" source="am3RVxZ9VUqmCvYDFiqI-17" target="am3RVxZ9VUqmCvYDFiqI-17">
          <mxGeometry relative="1" as="geometry">
            <Array as="points">
              <mxPoint x="150" y="430" />
            </Array>
          </mxGeometry>
        </mxCell>
        <mxCell id="am3RVxZ9VUqmCvYDFiqI-44" style="edgeStyle=none;rounded=0;orthogonalLoop=1;jettySize=auto;html=1;exitX=0;exitY=1;exitDx=0;exitDy=0;entryX=0;entryY=0.5;entryDx=0;entryDy=0;curved=1;" edge="1" parent="1" source="am3RVxZ9VUqmCvYDFiqI-20" target="am3RVxZ9VUqmCvYDFiqI-20">
          <mxGeometry relative="1" as="geometry">
            <Array as="points">
              <mxPoint x="170" y="488" />
            </Array>
          </mxGeometry>
        </mxCell>
        <mxCell id="am3RVxZ9VUqmCvYDFiqI-45" style="edgeStyle=none;rounded=0;orthogonalLoop=1;jettySize=auto;html=1;exitX=0;exitY=1;exitDx=0;exitDy=0;entryX=0;entryY=0.5;entryDx=0;entryDy=0;curved=1;" edge="1" parent="1" source="am3RVxZ9VUqmCvYDFiqI-22" target="am3RVxZ9VUqmCvYDFiqI-22">
          <mxGeometry relative="1" as="geometry">
            <Array as="points">
              <mxPoint x="240" y="648" />
            </Array>
          </mxGeometry>
        </mxCell>
        <mxCell id="am3RVxZ9VUqmCvYDFiqI-46" style="edgeStyle=none;rounded=0;orthogonalLoop=1;jettySize=auto;html=1;exitX=0;exitY=0.5;exitDx=0;exitDy=0;entryX=0;entryY=0;entryDx=0;entryDy=0;curved=1;" edge="1" parent="1" source="am3RVxZ9VUqmCvYDFiqI-24" target="am3RVxZ9VUqmCvYDFiqI-24">
          <mxGeometry relative="1" as="geometry">
            <Array as="points">
              <mxPoint x="250" y="740" />
            </Array>
          </mxGeometry>
        </mxCell>
        <mxCell id="am3RVxZ9VUqmCvYDFiqI-47" style="edgeStyle=none;rounded=0;orthogonalLoop=1;jettySize=auto;html=1;exitX=0;exitY=0.5;exitDx=0;exitDy=0;entryX=0;entryY=0;entryDx=0;entryDy=0;curved=1;" edge="1" parent="1" source="am3RVxZ9VUqmCvYDFiqI-25" target="am3RVxZ9VUqmCvYDFiqI-25">
          <mxGeometry relative="1" as="geometry">
            <Array as="points">
              <mxPoint x="100" y="870" />
            </Array>
          </mxGeometry>
        </mxCell>
        <mxCell id="am3RVxZ9VUqmCvYDFiqI-48" style="edgeStyle=none;rounded=0;orthogonalLoop=1;jettySize=auto;html=1;exitX=0;exitY=0;exitDx=0;exitDy=0;entryX=0.5;entryY=0;entryDx=0;entryDy=0;curved=1;" edge="1" parent="1" source="am3RVxZ9VUqmCvYDFiqI-28" target="am3RVxZ9VUqmCvYDFiqI-28">
          <mxGeometry relative="1" as="geometry">
            <Array as="points">
              <mxPoint x="-30" y="900" />
            </Array>
          </mxGeometry>
        </mxCell>
        <mxCell id="am3RVxZ9VUqmCvYDFiqI-49" style="edgeStyle=none;rounded=0;orthogonalLoop=1;jettySize=auto;html=1;exitX=0.5;exitY=0;exitDx=0;exitDy=0;entryX=1;entryY=0;entryDx=0;entryDy=0;curved=1;" edge="1" parent="1" source="am3RVxZ9VUqmCvYDFiqI-31" target="am3RVxZ9VUqmCvYDFiqI-31">
          <mxGeometry relative="1" as="geometry">
            <Array as="points">
              <mxPoint x="-140" y="840" />
            </Array>
          </mxGeometry>
        </mxCell>
        <mxCell id="am3RVxZ9VUqmCvYDFiqI-50" style="edgeStyle=none;rounded=0;orthogonalLoop=1;jettySize=auto;html=1;exitX=1;exitY=0;exitDx=0;exitDy=0;entryX=1;entryY=0.5;entryDx=0;entryDy=0;curved=1;" edge="1" parent="1" source="am3RVxZ9VUqmCvYDFiqI-34" target="am3RVxZ9VUqmCvYDFiqI-34">
          <mxGeometry relative="1" as="geometry">
            <Array as="points">
              <mxPoint x="-250" y="742" />
            </Array>
          </mxGeometry>
        </mxCell>
        <mxCell id="am3RVxZ9VUqmCvYDFiqI-55" value="0" style="text;html=1;align=center;verticalAlign=middle;resizable=0;points=[];autosize=1;strokeColor=none;fillColor=none;" vertex="1" parent="1">
          <mxGeometry x="-180" y="460" width="30" height="30" as="geometry" />
        </mxCell>
        <mxCell id="am3RVxZ9VUqmCvYDFiqI-57" value="sample_ENABLE" style="text;html=1;align=center;verticalAlign=middle;resizable=0;points=[];autosize=1;strokeColor=none;fillColor=none;" vertex="1" parent="1">
          <mxGeometry x="-335" y="350" width="120" height="30" as="geometry" />
        </mxCell>
        <mxCell id="am3RVxZ9VUqmCvYDFiqI-64" value="Tx_EN" style="text;html=1;align=center;verticalAlign=middle;resizable=0;points=[];autosize=1;strokeColor=none;fillColor=none;" vertex="1" parent="1">
          <mxGeometry x="-630" y="440" width="60" height="30" as="geometry" />
        </mxCell>
        <mxCell id="am3RVxZ9VUqmCvYDFiqI-66" value="Combinational&lt;br&gt;Output&lt;br&gt;Logic" style="whiteSpace=wrap;html=1;aspect=fixed;" vertex="1" parent="1">
          <mxGeometry x="690" y="1035" width="110" height="110" as="geometry" />
        </mxCell>
        <mxCell id="am3RVxZ9VUqmCvYDFiqI-67" style="edgeStyle=orthogonalEdgeStyle;rounded=0;orthogonalLoop=1;jettySize=auto;html=1;exitX=1;exitY=0.5;exitDx=0;exitDy=0;entryX=1;entryY=0.25;entryDx=0;entryDy=0;" edge="1" parent="1" source="am3RVxZ9VUqmCvYDFiqI-68" target="am3RVxZ9VUqmCvYDFiqI-71">
          <mxGeometry relative="1" as="geometry" />
        </mxCell>
        <mxCell id="am3RVxZ9VUqmCvYDFiqI-68" value="Combinational&lt;br&gt;State&lt;br&gt;Logic" style="whiteSpace=wrap;html=1;aspect=fixed;" vertex="1" parent="1">
          <mxGeometry x="500" y="860" width="110" height="110" as="geometry" />
        </mxCell>
        <mxCell id="am3RVxZ9VUqmCvYDFiqI-69" style="edgeStyle=orthogonalEdgeStyle;rounded=0;orthogonalLoop=1;jettySize=auto;html=1;exitX=1;exitY=0.5;exitDx=0;exitDy=0;entryX=0;entryY=0.5;entryDx=0;entryDy=0;" edge="1" parent="1" source="am3RVxZ9VUqmCvYDFiqI-71" target="am3RVxZ9VUqmCvYDFiqI-66">
          <mxGeometry relative="1" as="geometry" />
        </mxCell>
        <mxCell id="am3RVxZ9VUqmCvYDFiqI-70" style="edgeStyle=orthogonalEdgeStyle;rounded=0;orthogonalLoop=1;jettySize=auto;html=1;exitX=0;exitY=0.25;exitDx=0;exitDy=0;entryX=0;entryY=0.5;entryDx=0;entryDy=0;" edge="1" parent="1" source="am3RVxZ9VUqmCvYDFiqI-71" target="am3RVxZ9VUqmCvYDFiqI-68">
          <mxGeometry relative="1" as="geometry" />
        </mxCell>
        <mxCell id="am3RVxZ9VUqmCvYDFiqI-71" value="State Register" style="whiteSpace=wrap;html=1;aspect=fixed;" vertex="1" parent="1">
          <mxGeometry x="500" y="1035" width="110" height="110" as="geometry" />
        </mxCell>
        <mxCell id="am3RVxZ9VUqmCvYDFiqI-72" value="next_state" style="text;html=1;align=center;verticalAlign=middle;resizable=0;points=[];autosize=1;strokeColor=none;fillColor=none;rotation=90;" vertex="1" parent="1">
          <mxGeometry x="610" y="970" width="80" height="30" as="geometry" />
        </mxCell>
        <mxCell id="am3RVxZ9VUqmCvYDFiqI-73" value="cur_state&amp;nbsp;" style="text;html=1;align=center;verticalAlign=middle;resizable=0;points=[];autosize=1;strokeColor=none;fillColor=none;rotation=270;" vertex="1" parent="1">
          <mxGeometry x="425" y="980" width="80" height="30" as="geometry" />
        </mxCell>
        <mxCell id="am3RVxZ9VUqmCvYDFiqI-74" value="" style="endArrow=classic;html=1;rounded=0;entryX=0;entryY=0.25;entryDx=0;entryDy=0;" edge="1" parent="1" target="am3RVxZ9VUqmCvYDFiqI-68">
          <mxGeometry width="50" height="50" relative="1" as="geometry">
            <mxPoint x="370" y="888" as="sourcePoint" />
            <mxPoint x="350" y="905" as="targetPoint" />
          </mxGeometry>
        </mxCell>
        <mxCell id="am3RVxZ9VUqmCvYDFiqI-75" value="Input" style="text;html=1;align=center;verticalAlign=middle;resizable=0;points=[];autosize=1;strokeColor=none;fillColor=none;" vertex="1" parent="1">
          <mxGeometry x="380" y="860" width="50" height="30" as="geometry" />
        </mxCell>
        <mxCell id="am3RVxZ9VUqmCvYDFiqI-76" value="INPUTS:&amp;nbsp; &amp;nbsp; &amp;nbsp; &amp;nbsp; &amp;nbsp; &amp;nbsp; &amp;nbsp; &amp;nbsp; &amp;nbsp; &amp;nbsp; &amp;nbsp; &amp;nbsp; &amp;nbsp; &amp;nbsp; &amp;nbsp; &amp;nbsp; &amp;nbsp; &amp;nbsp; &amp;nbsp; &amp;nbsp; &amp;nbsp; &amp;nbsp; &amp;nbsp; &amp;nbsp; &amp;nbsp; &amp;nbsp; &amp;nbsp; &amp;nbsp; &amp;nbsp; &amp;nbsp; &amp;nbsp; &amp;nbsp; &amp;nbsp; &amp;nbsp; &amp;nbsp; &amp;nbsp; &amp;nbsp; &amp;nbsp; &amp;nbsp; &amp;nbsp; &amp;nbsp; &amp;nbsp; &amp;nbsp; &amp;nbsp; &amp;nbsp; &amp;nbsp; &amp;nbsp; &amp;nbsp; &amp;nbsp; &amp;nbsp;&amp;nbsp;&lt;div&gt;&lt;span style=&quot;white-space: pre;&quot;&gt;&#x9;&lt;/span&gt;Tx_EN, Tx_WR, sample_ENABLE&lt;br&gt;OUTPUTS:&amp;nbsp; &amp;nbsp; &amp;nbsp; &amp;nbsp; &amp;nbsp; &amp;nbsp; &amp;nbsp; &amp;nbsp; &amp;nbsp; &amp;nbsp; &amp;nbsp; &amp;nbsp; &amp;nbsp; &amp;nbsp; &amp;nbsp; &amp;nbsp; &amp;nbsp; &amp;nbsp; &amp;nbsp; &amp;nbsp; &amp;nbsp; &amp;nbsp; &amp;nbsp; &amp;nbsp; &amp;nbsp; &amp;nbsp; &amp;nbsp; &amp;nbsp; &amp;nbsp; &amp;nbsp; &amp;nbsp; &amp;nbsp; &amp;nbsp; &amp;nbsp; &amp;nbsp; &amp;nbsp; &amp;nbsp; &amp;nbsp; &amp;nbsp; &amp;nbsp; &amp;nbsp; &amp;nbsp; &amp;nbsp; &amp;nbsp; &amp;nbsp; &amp;nbsp; &amp;nbsp; &amp;nbsp; &amp;nbsp;&lt;br&gt;Tx_BUSY, TxD&lt;/div&gt;" style="text;html=1;align=center;verticalAlign=middle;resizable=0;points=[];autosize=1;strokeColor=none;fillColor=none;" vertex="1" parent="1">
          <mxGeometry x="350" y="268" width="410" height="70" as="geometry" />
        </mxCell>
        <mxCell id="am3RVxZ9VUqmCvYDFiqI-77" value="The FSM will output TxD and Tx_BUSY regarless of input &lt;br&gt;as in each case we know what they should be set as --&amp;gt; Moore" style="text;html=1;align=center;verticalAlign=middle;resizable=0;points=[];autosize=1;strokeColor=none;fillColor=none;" vertex="1" parent="1">
          <mxGeometry x="350" y="365" width="360" height="40" as="geometry" />
        </mxCell>
        <mxCell id="am3RVxZ9VUqmCvYDFiqI-79" value="1" style="text;html=1;align=center;verticalAlign=middle;resizable=0;points=[];autosize=1;strokeColor=none;fillColor=none;" vertex="1" parent="1">
          <mxGeometry x="-365" y="470" width="30" height="30" as="geometry" />
        </mxCell>
        <mxCell id="am3RVxZ9VUqmCvYDFiqI-80" value="1" style="text;html=1;align=center;verticalAlign=middle;resizable=0;points=[];autosize=1;strokeColor=none;fillColor=none;" vertex="1" parent="1">
          <mxGeometry x="-220" y="340" width="30" height="30" as="geometry" />
        </mxCell>
        <mxCell id="am3RVxZ9VUqmCvYDFiqI-81" value="1" style="text;html=1;align=center;verticalAlign=middle;resizable=0;points=[];autosize=1;strokeColor=none;fillColor=none;" vertex="1" parent="1">
          <mxGeometry x="-15" y="270" width="30" height="30" as="geometry" />
        </mxCell>
        <mxCell id="am3RVxZ9VUqmCvYDFiqI-82" value="1" style="text;html=1;align=center;verticalAlign=middle;resizable=0;points=[];autosize=1;strokeColor=none;fillColor=none;" vertex="1" parent="1">
          <mxGeometry x="210" y="358" width="30" height="30" as="geometry" />
        </mxCell>
        <mxCell id="am3RVxZ9VUqmCvYDFiqI-83" value="1" style="text;html=1;align=center;verticalAlign=middle;resizable=0;points=[];autosize=1;strokeColor=none;fillColor=none;" vertex="1" parent="1">
          <mxGeometry x="330" y="510" width="30" height="30" as="geometry" />
        </mxCell>
        <mxCell id="am3RVxZ9VUqmCvYDFiqI-84" value="1" style="text;html=1;align=center;verticalAlign=middle;resizable=0;points=[];autosize=1;strokeColor=none;fillColor=none;" vertex="1" parent="1">
          <mxGeometry x="345" y="680" width="30" height="30" as="geometry" />
        </mxCell>
        <mxCell id="am3RVxZ9VUqmCvYDFiqI-85" value="1" style="text;html=1;align=center;verticalAlign=middle;resizable=0;points=[];autosize=1;strokeColor=none;fillColor=none;" vertex="1" parent="1">
          <mxGeometry x="280" y="850" width="30" height="30" as="geometry" />
        </mxCell>
        <mxCell id="am3RVxZ9VUqmCvYDFiqI-86" value="1" style="text;html=1;align=center;verticalAlign=middle;resizable=0;points=[];autosize=1;strokeColor=none;fillColor=none;" vertex="1" parent="1">
          <mxGeometry x="90" y="980" width="30" height="30" as="geometry" />
        </mxCell>
        <mxCell id="am3RVxZ9VUqmCvYDFiqI-87" value="1" style="text;html=1;align=center;verticalAlign=middle;resizable=0;points=[];autosize=1;strokeColor=none;fillColor=none;" vertex="1" parent="1">
          <mxGeometry x="-130" y="980" width="30" height="30" as="geometry" />
        </mxCell>
        <mxCell id="am3RVxZ9VUqmCvYDFiqI-88" value="1" style="text;html=1;align=center;verticalAlign=middle;resizable=0;points=[];autosize=1;strokeColor=none;fillColor=none;" vertex="1" parent="1">
          <mxGeometry x="-300" y="850" width="30" height="30" as="geometry" />
        </mxCell>
        <mxCell id="am3RVxZ9VUqmCvYDFiqI-89" value="1" style="text;html=1;align=center;verticalAlign=middle;resizable=0;points=[];autosize=1;strokeColor=none;fillColor=none;" vertex="1" parent="1">
          <mxGeometry x="-570" y="770" width="30" height="30" as="geometry" />
        </mxCell>
        <mxCell id="am3RVxZ9VUqmCvYDFiqI-90" value="0" style="text;html=1;align=center;verticalAlign=middle;resizable=0;points=[];autosize=1;strokeColor=none;fillColor=none;" vertex="1" parent="1">
          <mxGeometry x="-45" y="390" width="30" height="30" as="geometry" />
        </mxCell>
        <mxCell id="am3RVxZ9VUqmCvYDFiqI-93" value="0" style="text;html=1;align=center;verticalAlign=middle;resizable=0;points=[];autosize=1;strokeColor=none;fillColor=none;" vertex="1" parent="1">
          <mxGeometry x="95" y="415" width="30" height="30" as="geometry" />
        </mxCell>
        <mxCell id="am3RVxZ9VUqmCvYDFiqI-94" value="0" style="text;html=1;align=center;verticalAlign=middle;resizable=0;points=[];autosize=1;strokeColor=none;fillColor=none;" vertex="1" parent="1">
          <mxGeometry x="170" y="480" width="30" height="30" as="geometry" />
        </mxCell>
        <mxCell id="am3RVxZ9VUqmCvYDFiqI-95" value="0" style="text;html=1;align=center;verticalAlign=middle;resizable=0;points=[];autosize=1;strokeColor=none;fillColor=none;" vertex="1" parent="1">
          <mxGeometry x="230" y="610" width="30" height="30" as="geometry" />
        </mxCell>
        <mxCell id="am3RVxZ9VUqmCvYDFiqI-96" value="0" style="text;html=1;align=center;verticalAlign=middle;resizable=0;points=[];autosize=1;strokeColor=none;fillColor=none;" vertex="1" parent="1">
          <mxGeometry x="210" y="710" width="30" height="30" as="geometry" />
        </mxCell>
        <mxCell id="am3RVxZ9VUqmCvYDFiqI-98" value="0" style="text;html=1;align=center;verticalAlign=middle;resizable=0;points=[];autosize=1;strokeColor=none;fillColor=none;" vertex="1" parent="1">
          <mxGeometry x="110" y="820" width="30" height="30" as="geometry" />
        </mxCell>
        <mxCell id="am3RVxZ9VUqmCvYDFiqI-99" value="0" style="text;html=1;align=center;verticalAlign=middle;resizable=0;points=[];autosize=1;strokeColor=none;fillColor=none;" vertex="1" parent="1">
          <mxGeometry x="-45" y="870" width="30" height="30" as="geometry" />
        </mxCell>
        <mxCell id="am3RVxZ9VUqmCvYDFiqI-100" value="0" style="text;html=1;align=center;verticalAlign=middle;resizable=0;points=[];autosize=1;strokeColor=none;fillColor=none;" vertex="1" parent="1">
          <mxGeometry x="-140" y="810" width="30" height="30" as="geometry" />
        </mxCell>
        <mxCell id="am3RVxZ9VUqmCvYDFiqI-101" value="0" style="text;html=1;align=center;verticalAlign=middle;resizable=0;points=[];autosize=1;strokeColor=none;fillColor=none;" vertex="1" parent="1">
          <mxGeometry x="-250" y="720" width="30" height="30" as="geometry" />
        </mxCell>
        <mxCell id="am3RVxZ9VUqmCvYDFiqI-102" value="0" style="text;html=1;align=center;verticalAlign=middle;resizable=0;points=[];autosize=1;strokeColor=none;fillColor=none;" vertex="1" parent="1">
          <mxGeometry x="-270" y="569" width="30" height="30" as="geometry" />
        </mxCell>
        <mxCell id="am3RVxZ9VUqmCvYDFiqI-103" value="Tx_WR" style="text;html=1;align=center;verticalAlign=middle;resizable=0;points=[];autosize=1;strokeColor=none;fillColor=none;" vertex="1" parent="1">
          <mxGeometry x="-510" y="538" width="60" height="30" as="geometry" />
        </mxCell>
        <mxCell id="am3RVxZ9VUqmCvYDFiqI-105" value="sample_ENABLE" style="text;html=1;align=center;verticalAlign=middle;resizable=0;points=[];autosize=1;strokeColor=none;fillColor=none;" vertex="1" parent="1">
          <mxGeometry x="-600" y="810" width="120" height="30" as="geometry" />
        </mxCell>
        <mxCell id="am3RVxZ9VUqmCvYDFiqI-106" style="edgeStyle=orthogonalEdgeStyle;rounded=0;orthogonalLoop=1;jettySize=auto;html=1;exitX=1;exitY=1;exitDx=0;exitDy=0;entryX=0.5;entryY=1;entryDx=0;entryDy=0;curved=1;" edge="1" parent="1" source="am3RVxZ9VUqmCvYDFiqI-6" target="am3RVxZ9VUqmCvYDFiqI-6">
          <mxGeometry relative="1" as="geometry">
            <Array as="points">
              <mxPoint x="-542" y="650" />
              <mxPoint x="-570" y="650" />
            </Array>
          </mxGeometry>
        </mxCell>
      </root>
    </mxGraphModel>
  </diagram>
</mxfile>
